<?xml version="1.0" standalone="no"?>
<!DOCTYPE svg PUBLIC "-//W3C//DTD SVG 20010904//EN"
 "http://www.w3.org/TR/2001/REC-SVG-20010904/DTD/svg10.dtd">
<svg version="1.0" xmlns="http://www.w3.org/2000/svg"
 width="1280.000000pt" height="1280.000000pt" viewBox="0 0 1280.000000 1280.000000"
 preserveAspectRatio="xMidYMid meet">
<metadata>
Created by potrace 1.15, written by Peter Selinger 2001-2017
</metadata>
<g transform="translate(0.000000,1280.000000) scale(0.100000,-0.100000)"
fill="#000000" stroke="none">
<path d="M6100 10804 c-19 -2 -87 -9 -150 -15 -980 -93 -1934 -553 -2640
-1275 -622 -636 -1023 -1414 -1175 -2279 -45 -259 -57 -396 -62 -734 -6 -326
3 -515 33 -746 174 -1338 970 -2524 2148 -3200 1057 -606 2352 -733 3516 -345
1386 461 2456 1604 2820 3013 102 396 140 714 140 1177 0 447 -37 766 -131
1145 -238 951 -809 1807 -1602 2403 -218 164 -414 285 -669 411 -447 224 -902
360 -1428 427 -118 15 -710 28 -800 18z"/>
</g>
</svg>
